<?xml version="1.0" standalone="no"?>
<!DOCTYPE svg PUBLIC "-//W3C//DTD SVG 20010904//EN"
 "http://www.w3.org/TR/2001/REC-SVG-20010904/DTD/svg10.dtd">
<svg version="1.0" xmlns="http://www.w3.org/2000/svg"
 width="500.000000pt" height="500.000000pt" viewBox="0 0 500.000000 500.000000"
 preserveAspectRatio="xMidYMid meet">
<metadata>
Created by potrace 1.14, written by Peter Selinger 2001-2017
</metadata>
<g transform="translate(0.000000,500.000000) scale(0.100000,-0.100000)"
fill="#000000" stroke="none">
<path d="M2529 4906 c-2 -2 -71 -6 -154 -10 -156 -6 -167 -7 -300 -31 -108
-20 -109 -20 -203 -44 -308 -79 -625 -241 -896 -457 -91 -73 -276 -257 -341
-339 -22 -27 -42 -52 -45 -55 -20 -20 -109 -149 -172 -250 -63 -101 -167 -328
-213 -465 -49 -145 -98 -372 -113 -520 -16 -162 -7 -482 17 -625 101 -592 388
-1095 841 -1478 312 -264 791 -482 1160 -527 30 -4 57 -8 60 -10 30 -18 431
-26 555 -12 218 26 284 39 505 104 136 40 427 173 528 242 15 10 47 31 72 47
24 16 51 34 60 41 8 7 38 29 66 50 124 91 304 262 384 362 19 24 47 58 62 76
60 70 181 263 246 393 118 232 208 513 237 742 17 126 20 178 20 335 0 182 -6
285 -24 385 -5 30 -12 71 -16 90 -22 125 -90 354 -137 459 -149 334 -295 551
-532 786 -203 202 -404 346 -656 470 -204 99 -500 190 -695 211 -27 3 -52 7
-55 9 -3 2 -59 7 -125 10 -66 4 -123 9 -126 11 -3 2 -8 2 -10 0z"/>
</g>
</svg>
